<?xml version="1.0" standalone="no"?>
<!DOCTYPE svg PUBLIC "-//W3C//DTD SVG 1.1//EN" "http://www.w3.org/Graphics/SVG/1.1/DTD/svg11.dtd">
<svg xmlns="http://www.w3.org/2000/svg" id="Layer_2" data-name="Layer 2" viewBox="0 0 305.02 130.51" width="305.0199890136719" height="130.50999450683594">
  <defs>
    <style>
      .cls-1 {
        fill: #fff;
      }
    </style>
  </defs>
  <g id="Layer_1-2" data-name="Layer 1">
    <g>
      <path class="cls-1" d="M53.08,114.65c4.6,0,6.34,1.63,6.34,5.98v3.9c0,4.35-1.74,5.98-6.34,5.98h-7c-4.57,0-6.34-1.63-6.34-5.98v-3.9c0-4.35,1.77-5.98,6.34-5.98h7ZM43.21,124.28c0,2.38.68,3.08,3.01,3.08h6.73c2.33,0,3.01-.7,3.01-3.08v-3.4c0-2.38-.68-3.08-3.01-3.08h-6.73c-2.33,0-3.01.7-3.01,3.08v3.4Z"/>
      <path class="cls-1" d="M97.69,114.65c3.47,0,4.87,1.61,4.87,4.67v1.68c0,3.06-1.4,4.67-4.87,4.67h-9.38v4.35c0,.34-.16.5-.5.5h-2.45c-.34,0-.52-.16-.52-.5v-14.68c0-.45.23-.68.68-.68h12.16ZM88.31,122.67h8.68c1.54,0,2.11-.66,2.11-2.02v-.86c0-1.36-.57-2.01-2.11-2.01h-8.38c-.2,0-.29.07-.29.27v4.62Z"/>
      <path class="cls-1" d="M144.66,114.65c.34,0,.52.16.52.5v2.22c0,.34-.18.52-.52.52h-7.11v12.12c0,.34-.16.5-.5.5h-2.47c-.34,0-.5-.16-.5-.5v-12.12h-7.11c-.34,0-.52-.18-.52-.52v-2.22c0-.34.18-.5.52-.5h17.69Z"/>
      <path class="cls-1" d="M172.77,114.65c.34,0,.5.16.5.5v14.86c0,.34-.16.5-.5.5h-2.45c-.34,0-.52-.16-.52-.5v-14.86c0-.34.18-.5.52-.5h2.45Z"/>
      <path class="cls-1" d="M215.29,114.65c.34,0,.5.16.5.5v2.22c0,.34-.16.52-.5.52h-10.08c-2.33,0-3.01.68-3.01,3.08v3.22c0,2.4.68,3.1,3.01,3.1h10.08c.34,0,.5.16.5.5v2.22c0,.34-.16.5-.5.5h-10.22c-4.58,0-6.34-1.63-6.34-5.98v-3.9c0-4.35,1.77-5.98,6.34-5.98h10.22Z"/>
      <path class="cls-1" d="M250.89,114.65c1.16,0,1.86.36,2.61,1.72l7.5,13.62c.16.29.09.52-.27.52h-2.88c-.3,0-.41-.07-.52-.29l-1.61-2.92h-10.65l-1.56,2.92c-.11.23-.25.29-.52.29h-2.95c-.39,0-.45-.23-.29-.52l7.43-13.62c.75-1.36,1.43-1.72,2.38-1.72h1.34ZM246.49,124.66h7.79l-3.6-6.64c-.07-.12-.14-.16-.25-.16h-.14c-.11,0-.18.04-.25.16l-3.56,6.64Z"/>
      <path class="cls-1" d="M82.68,69.12h-49.14c-13.73,0-18.36-4.76-18.36-18.86V1.88C15.18.84,14.34,0,13.3,0H1.88C.84,0,0,.84,0,1.88v50.24c0,22.75,8.58,30.82,32.8,30.82h49.88c1.03,0,1.87-.84,1.87-1.87v-10.08c0-1.03-.84-1.87-1.87-1.87"/>
      <path class="cls-1" d="M202.31,29.96c-.22-22.08-8.87-29.96-32.77-29.96h-38.27c-23.9,0-32.55,7.88-32.77,29.96,0,.04-.02.07-.02.1,0,1.05.85,1.9,1.9,1.9h11.4c1.05,0,1.9-.85,1.9-1.9h.03c.45-12.4,5.13-16.62,18.3-16.62h36.79c13.17,0,17.86,4.23,18.3,16.62h.02c0,1.05.85,1.9,1.9,1.9h11.4c1.05,0,1.9-.85,1.9-1.9,0-.04-.02-.07-.02-.1"/>
      <path class="cls-1" d="M98.49,52.97c.22,22.08,8.87,29.96,32.77,29.96h38.27c23.9,0,32.55-7.88,32.77-29.96,0-.04.02-.07.02-.1,0-1.05-.85-1.9-1.9-1.9h-11.4c-1.05,0-1.9.85-1.9,1.9h-.03c-.45,12.4-5.13,16.62-18.3,16.62h-36.79c-13.17,0-17.86-4.23-18.3-16.62h-.02c0-1.05-.85-1.9-1.9-1.9h-11.4c-1.05,0-1.9.85-1.9,1.9,0,.04.02.07.02.1"/>
      <path class="cls-1" d="M254.01,13.44h49.11c1.05,0,1.89-.85,1.89-1.89V1.9c0-1.05-.85-1.9-1.89-1.9h-49.86c-24.21,0-32.79,8.06-32.79,30.82v50.22c0,1.05.85,1.9,1.9,1.9h11.38c1.05,0,1.9-.85,1.9-1.9v-33.03h68c.46,0,.83-.37.83-.83v-9.79c0-.46-.37-.83-.83-.83h-68v-4.36c0-14.01,4.63-18.73,18.36-18.73"/>
    </g>
  </g>
</svg>